<svg xmlns="http://www.w3.org/2000/svg" viewBox="0 0 512 512" id="boat">
  <path fill="#2ecefb" d="M504.5 327.4c-15.042 5.356-28.615 15.341-56.171 15.341-48.085 0-48.085-14-96.171-14-48.083 0-48.083 14-96.166 14-48.082 0-48.082-14-96.163-14-48.082 0-48.082 14-96.165 14-27.552 0-41.125-9.984-56.164-15.34v179.34h497V327.4z"></path>
  <path fill="#00c5fd" d="M63.664 342.741c-27.552 0-41.125-9.984-56.164-15.34v179.34h75V341.876c-5.403.543-11.568.865-18.836.865z"></path>
  <path fill="#df8a57" d="M145.124 285.741c-5.919 0-10.58 5.118-9.957 11.004C141.41 355.759 191.331 401.741 252 401.741s110.59-45.982 116.833-104.996c.623-5.886-4.038-11.004-9.957-11.004H145.124z"></path>
  <path fill="#d97c41" d="M210.167 296.745c-.623-5.886 4.038-11.004 9.957-11.004h-75c-5.919 0-10.58 5.118-9.957 11.004C141.41 355.759 191.331 401.741 252 401.741c13.114 0 25.723-2.152 37.5-6.116-42.707-14.375-74.439-52.622-79.333-98.88z"></path>
  <path fill="#00bdfd" d="M352.159 373.741c-48.083 0-48.083 14-96.166 14-48.082 0-48.082-14-96.163-14-48.082 0-48.082 14-96.165 14-27.552 0-41.125-9.984-56.164-15.34v134.34h497V372.4c-15.042 5.356-28.615 15.341-56.171 15.341-48.086 0-48.086-14-96.171-14z"></path>
  <path fill="#00b4fd" d="M63.664 387.741c-27.552 0-41.125-9.984-56.164-15.34v134.34h75V386.876c-5.403.543-11.568.865-18.836.865z"></path>
  <path fill="#c76d33" d="M252 401.741c46.772 0 87.151-27.333 106.058-66.894-12.715-4.099-19.064-11.106-40.753-11.106-30.65 0-30.65 14-61.301 14-30.652 0-31.272-16.306-61.835-13.98-25.442 1.937-29.419 10.199-47.277 13.024 19.285 38.512 59.104 64.956 105.108 64.956z"></path>
  <path fill="#af602d" d="m233.391 333.771.101-.037c-11.734-4.663-18.746-11.539-39.323-9.972-25.442 1.937-29.419 10.199-47.277 13.024 19.286 38.513 59.104 64.956 105.109 64.956 13.117 0 25.73-2.151 37.509-6.118-25.28-8.509-46.716-25.38-61.015-47.33-3.438-5.276-1.011-12.344 4.896-14.523z"></path>
  <path fill="#00adfc" d="M352.159 418.741c-48.083 0-48.083 14-96.166 14-48.082 0-48.082-14-96.163-14-48.082 0-48.082 14-96.165 14-27.552 0-41.125-9.984-56.164-15.34v89.34h497V417.4c-15.042 5.356-28.615 15.341-56.171 15.341-48.086 0-48.086-14-96.171-14z"></path>
  <path fill="#00a5fb" d="M82.5 471.741v-39.865c-5.403.543-11.568.865-18.836.865-27.552 0-41.125-9.984-56.164-15.34v89.34h497v-15h-402c-11.046 0-20-8.954-20-20z"></path>
  <path fill="#c76d33" d="M251.5 293.241a7.5 7.5 0 0 1-7.5-7.5v-120a7.5 7.5 0 0 1 15 0v120a7.5 7.5 0 0 1-7.5 7.5z"></path>
  <path fill="#f85647" d="M251.5 218.741v-57h57z"></path>
  <path fill="#f54432" d="M266.5 161.741h-15v57l15-15z"></path>
  <path d="M509.065 319.032c-6.027-3.822-12.572 1.975-18.441 3.85-42.905 21.86-78.218 3.017-119.233-3.04 5.03-15.301 11.699-42.677-12.276-43.842-5.391-.618-12.648.651-12.544 7.5 5.297 20.105 25.91-12.367 7.799 39.544-17.027-10.842-53.2-12.103-70.592-1.365-7.427 3.391-13.841 6.32-27.534 6.32-13.053 0-19.749-3.255-26.836-6.702-23.376-14.28-55.314-5.235-78.075 4.693-3.875-10.438-9.077-22.701-7.852-34.15 1.655-2.482 173.423.024 175.593-.842 9.665.152 9.772-15.147-.005-14.998H259.24v-56.394l54.803-54.803c4.725-4.426 1.186-13.023-5.304-12.803h-57a7.5 7.5 0 0 0-7.5 7.5c-.009 29.881.007 86.496 0 116.5-9.759 2.21-107.496-5.783-111.908 5.804-9.186 11.003-1.756 26.835 1.06 38.982C-37.874 374.237 6.544 200.635.238 504.502A7.504 7.504 0 0 0 7.741 512h497a7.5 7.5 0 0 0 7.5-7.5c-.981-29.94.707-105.424-.002-134.34-1.268-4.595 3.189-49.314-3.174-51.128zM259.241 167h31.394l-31.394 31.394V167zm-91.268 168.824c47.94-19.724 47.776 6.374 88.272 7.177 16.957-.001 25.888-4.08 33.767-7.679 14.012-8.773 43.363-7.995 57.763 1.213-39.5 71.667-147.706 73.882-189.307 2.992 3.497-1.133 6.528-2.43 9.505-3.703zm-152.732.538c42.952 22.266 82.999 7.421 123.809-1.209 4.978 10.365 11.258 20.164 18.863 28.857-57.406 1.323-85.404 30.652-142.672 1.021v-28.669zm482 28.666c-11.78 4.893-20.713 9.974-35.765 12.113a7.5 7.5 0 0 0-6.394 8.463c3.106 15.601 36.345-2.544 42.158-4.246v28.67c-73.01 37.458-110.961-21.355-195.022 6.272-81.846 24.927-110.531-29.109-204.315 3.247-9.403 2.071-6.106 16.963 3.413 14.605 90.89-31.511 118.783 23.081 205.096-3.451 73.902-25.539 120.778 30.255 190.828-4.343V497h-482v-70.64c3.022 1.832 54.974 23.216 56.65 4.117a7.5 7.5 0 0 0-7.5-7.478c-22.848.006-33.694-6.494-49.149-12.97v-28.667c60.019 30.158 99.119-7.258 158.767-1.88 43.592 36.108 111.23 36.507 155.268.959 37.081-6.191 64.271 5.457 96.142 11.261 10.424 2.815 14.138-13.101 3.307-14.714-30.667-4.38-43.829-14.655-82.214-12.907 7.772-8.912 14.249-18.931 19.229-29.648 14.481.992 23.341 3.56 32.644 6.268 22.252 9.343 76.202 10.441 98.858-4.343v28.67z"></path>
</svg>
