<svg xmlns="http://www.w3.org/2000/svg" viewBox="0 0 512 512" id="cloud-sun-thunder-rain">
  <g>
    <path d="M125.29 374H105a95 95 0 1137.17-182.44A16 16 0 11129.65 221 63 63 0 10105 342h20.29a16 16 0 010 32zM343 374H257.12a16 16 0 010-32H343a77 77 0 0077-78.15c-.6-41.44-34.82-75.47-76.28-75.85a76.47 76.47 0 00-35.32 8.19A16 16 0 01294 167.61 109.63 109.63 0 01344 156c59 .54 107.13 48.38 108 107.39A108.94 108.94 0 01343 374z"></path>
    <path d="M88.08,217.82a16,16,0,0,1-16-16.51,144,144,0,0,1,282.8-33.47A16,16,0,0,1,324,176.3a112,112,0,0,0-220,26A16,16,0,0,1,88.08,217.82Z"></path>
    <path d="M436,265a93,93,0,0,1-93,93H257.12l25.52-22.21c52.17-35.23,84-96,78.8-162A93,93,0,0,1,436,265Z" opacity=".2"></path>
    <path d="M133,482a16,16,0,0,1-15.06-21.4L143.26,390H115a16,16,0,0,1-13.46-24.65l63-98A16,16,0,0,1,178,260h86a16,16,0,0,1,12.69,25.74L253.46,316H287a16,16,0,0,1,10.5,28.07l-154,134A15.94,15.94,0,0,1,133,482Zm11.31-124H166a16,16,0,0,1,15.06,21.4l-12.29,34.27L244.24,348H221a16,16,0,0,1-12.69-25.74L231.54,292H186.73Z"></path>
    <path d="M287,332,133,466l32.6-90.88A134.44,134.44,0,0,0,221.75,332Z" opacity=".2"></path>
    <path d="M26 420a16 16 0 01-13.34-24.83l38-57.46a16 16 0 1126.7 17.66l-38 57.46A16 16 0 0126 420zM39 512A16 16 0 0125.6 487.26l30-46a16 16 0 1126.8 17.48l-30 46A16 16 0 0139 512zM217 512a16 16 0 01-13.39-24.74l30-46a16 16 0 1126.8 17.48l-30 46A16 16 0 01217 512zM325 512a16 16 0 01-13.39-24.74l30-46a16 16 0 1126.8 17.48l-30 46A16 16 0 01325 512zM310 420a16 16 0 01-13.39-24.74l30-46a16 16 0 1126.8 17.48l-30 46A16 16 0 01310 420zM380.32 196.79a16 16 0 011.15-22.59 38 38 0 10-58.22-47.49 16 16 0 11-27.54-16.28 70 70 0 11107.2 87.51A16 16 0 01380.32 196.79zM486 162H464a16 16 0 010-32h22a16 16 0 010 32zM421.05 81a16 16 0 010-22.63l15.56-15.56a16 16 0 0122.63 22.63L443.68 81A16 16 0 01421.05 81zM356 54a16 16 0 01-16-16V16a16 16 0 0132 0V38A16 16 0 01356 54z"></path>
    <path d="M392.19,186.07a92.55,92.55,0,0,0-52.74-14q-.94-3.48-2.1-6.87A66,66,0,0,0,388,102.49,54,54,0,0,1,392.19,186.07Z" opacity=".2"></path>
  </g>
</svg>
