<svg xmlns="http://www.w3.org/2000/svg" xml:space="preserve" viewBox="0 0 512 512" id="growth">
  <path fill="#6cf5c2" fill-rule="evenodd" d="M339.87 216.655h-45.714c-5.508 0-10 4.492-10 10v241.094c0 5.508 4.492 10 10 10h45.714c5.508 0 10-4.492 10-10V226.655c-.001-5.508-4.493-10-10-10z" clip-rule="evenodd"></path>
  <path fill="#00e499" fill-rule="evenodd" d="M339.87 216.655h-20.001c5.508 0 10 4.492 10 10v241.094c0 5.508-4.492 10-10 10h20.001c5.508 0 10-4.492 10-10V226.655c-.001-5.508-4.493-10-10-10z" clip-rule="evenodd"></path>
  <path fill="#ffe177" fill-rule="evenodd" d="M217.849 285.627h-45.715c-5.508 0-10 4.492-10 10v172.122c-.001 5.508 4.492 10 10 10h45.715c5.508 0 10-4.493 10-10V295.627c0-5.508-4.492-10-10-10z" clip-rule="evenodd"></path>
  <path fill="#ffd064" fill-rule="evenodd" d="M217.849 285.627h-20.001c5.508 0 10 4.492 10 10v172.122c0 5.508-4.492 10-10 10h20.001c5.508 0 10-4.493 10-10V295.627c0-5.508-4.492-10-10-10z" clip-rule="evenodd"></path>
  <path fill="#8ac9fe" fill-rule="evenodd" d="M416.173 154.609h45.715c5.508 0 10 4.492 10 10v303.139c0 5.508-4.492 10-10 10h-45.715c-5.508 0-10-4.492-10-10V164.609c0-5.508 4.492-10 10-10z" clip-rule="evenodd"></path>
  <path fill="#60b7ff" fill-rule="evenodd" d="M441.887 154.609h20.001c5.508 0 10 4.492 10 10v303.139c0 5.508-4.492 10-10 10h-20.001c5.508 0 10-4.492 10-10V164.609c0-5.508-4.492-10-10-10z" clip-rule="evenodd"></path>
  <path fill="#fe646f" fill-rule="evenodd" d="M50.113 351.679h45.714c5.508 0 10 4.492 10 10v106.069c0 5.508-4.492 10-10 10H50.113c-5.507 0-10-4.492-10-10v-106.07c0-5.508 4.493-9.999 10-9.999z" clip-rule="evenodd"></path>
  <path fill="#fd4755" fill-rule="evenodd" d="M75.827 351.679h20.001c5.508 0 10 4.492 10 10v106.069c0 5.508-4.492 10-10 10H75.827c5.508 0 10-4.492 10-10v-106.07c-.001-5.508-4.493-9.999-10-9.999z" clip-rule="evenodd"></path>
  <path fill="#ffe177" fill-rule="evenodd" d="M362.269 93.02c-24.37 39.388-61.25 75.155-108.09 101.286-69.594 38.824-145.736 47.766-207.248 30.061 46.989.389 94.318-10.29 145.344-38.757 46.274-25.815 100.212-76.862 127.41-121.148L295.794 48.44a2.939 2.939 0 0 1-1.3-2.907 2.94 2.94 0 0 1 2.048-2.439l82.23-26.6a2.91 2.91 0 0 1 2.585.357 2.913 2.913 0 0 1 1.328 2.246l7.294 86.639a2.94 2.94 0 0 1-1.468 2.837 2.94 2.94 0 0 1-3.193-.094L362.269 93.02z" clip-rule="evenodd"></path>
  <path fill="#ffd064" fill-rule="evenodd" d="M362.269 93.02c-24.37 39.388-61.25 75.155-108.09 101.286-69.594 38.824-145.736 47.766-207.248 30.061.7.006 1.399.009 2.099.01h.195l.83-.001c57.803 11.108 133.636-4.035 188.373-34.571s85.924-65.226 110.293-104.614l13.548 7.829zm5.136-72.849 6.808 80.859 11.107 7.449a2.94 2.94 0 0 0 3.193.094 2.94 2.94 0 0 0 1.468-2.837l-7.294-86.639a2.913 2.913 0 0 0-1.328-2.246 2.913 2.913 0 0 0-2.585-.357l-11.369 3.677z" clip-rule="evenodd"></path>
  <path fill="#a79ba7" fill-rule="evenodd" d="M18 470.868h476.001c5.508 0 10 4.492 10 10v4.814c0 5.508-4.492 10-10 10H18c-5.508 0-10-4.492-10-10v-4.814c0-5.508 4.492-10 10-10z" clip-rule="evenodd"></path>
  <path fill="#837683" fill-rule="evenodd" d="M504.001 483.275v2.407c0 5.508-4.492 10-10 10H18c-5.508 0-10-4.492-10-10v-2.407h496.001z" clip-rule="evenodd"></path>
  <path fill-rule="evenodd" d="M196.171 194.411c47.784-26.652 102.597-78.78 130.329-123.952 2.25-3.651 1.212-8.429-2.358-10.83l-15.911-10.67 64.832-23.439 7.665 72.073-14-9.401a7.982 7.982 0 0 0-6.146-1.17 7.945 7.945 0 0 0-5.109 3.608c-24.624 39.789-61.002 73.851-105.192 98.512-44.086 24.59-91.668 37.477-137.042 37.85 28.011-6.453 55.488-17.274 82.932-32.581zM44.719 233.87c21.218 6.113 43.595 9.109 66.502 9.109 48.699 0 99.748-13.59 146.853-39.869 43.968-24.529 80.644-57.978 106.527-97.078l21.449 14.387a7.995 7.995 0 0 0 8.59.203 7.993 7.993 0 0 0 3.821-7.698L387.888 13.67a7.969 7.969 0 0 0-3.717-5.929A7.991 7.991 0 0 0 377.209 7l-89.266 32.289a8 8 0 0 0-1.736 14.17l22.524 15.1c-27.52 41.52-76.959 87.672-120.352 111.88-46.251 25.803-92.526 38.152-141.381 37.742-3.962-.009-7.411 2.901-7.981 6.849a7.998 7.998 0 0 0 5.702 8.84zM496 489.499H16.001v-8.811H496v8.811zM48.111 361.5h49.718v103.192H48.111V361.5zm122.022-66.058h49.713v169.25h-49.713v-169.25zm122.017-68.974v238.224h49.719V226.468H292.15zm122.018-62.039h49.723v300.263h-49.723V164.429zM504 464.692h-24.109V156.429c0-4.42-3.58-8-8-8h-65.719c-4.42 0-8 3.58-8 8v308.263h-40.303V218.468c0-4.42-3.581-8-8-8h-65.714c-4.42 0-8 3.58-8 8v246.224h-40.303V287.437c0-4.415-3.585-7.995-8-7.995h-65.719c-4.415 0-8 3.58-8 7.995v177.255H113.83V353.5c0-4.42-3.585-8-8-8H40.115c-4.42 0-8 3.58-8 8v111.192H8.001c-4.42 0-8 3.58-8 8v24.807c0 4.42 3.58 8 8 8H504c4.42 0 8-3.58 8-8v-24.807c0-4.42-3.58-8-8-8z" clip-rule="evenodd"></path>
</svg>
