<svg xmlns="http://www.w3.org/2000/svg" xml:space="preserve" viewBox="0 0 48 48" id="robot">
  <symbol id="New_Symbol_14" viewBox="-6.5 -6.5 13 13">
    <path fill="#FFD4C3" stroke="#504B46" stroke-linecap="round" stroke-linejoin="round" stroke-miterlimit="10" d="M0-6c2.2 0 4.1 1.5 4.7 3.5C6.3-2.5 6.4 0 5 0v1c0 2.8-2.2 5-5 5s-5-2.2-5-5V0c-1.4 0-1.3-2.5.2-2.5C-4.1-4.5-2.2-6 0-6z" style="fill:#ffd4c3;stroke:#504b46;stroke-linecap:round;stroke-linejoin:round;stroke-miterlimit:10"></path>
    <circle cx="-1.6" cy="-.1" r=".1" style="fill:#ffc258"></circle>
    <path d="M-1.6.5c-.3 0-.6-.3-.6-.6s.2-.7.6-.7c.3 0 .6.3.6.7s-.3.6-.6.6z" style="fill:#4f4b45"></path>
    <circle cx="1.6" cy="-.1" r=".1" style="fill:#ffc258"></circle>
    <path d="M1.6.5C1.3.5 1 .2 1-.1s.3-.6.6-.6.6.3.6.6-.2.6-.6.6z" style="fill:#4f4b45"></path>
    <circle cx="-3" cy="-1.5" r=".5" style="fill:#fabfa5"></circle>
    <circle cx="3" cy="-1.5" r=".5" style="fill:#fabfa5"></circle>
    <path fill="none" stroke="#504B46" stroke-linecap="round" stroke-linejoin="round" stroke-miterlimit="10" d="M-1.2-3c.8-.5 1.7-.5 2.5 0" style="fill:none;stroke:#504b46;stroke-linecap:round;stroke-linejoin:round;stroke-miterlimit:10"></path>
  </symbol>
  <g id="Icons">
    <g id="XMLID_725_">
      <ellipse id="XMLID_1186_" cx="24" cy="45.5" fill="#45413C" opacity=".15" rx="19.5" ry="1.5" style="opacity:.15;fill:#45413c"></ellipse>
      <path id="XMLID_1191_" fill="#DAEDF7" d="M42 40.5c0 2.2-1.8 4-4 4H10c-2.2 0-4-1.8-4-4V27c0-9.9 8.1-18 18-18s18 8.1 18 18v13.5z" style="fill:#daedf7"></path>
      <path id="XMLID_1190_" fill="#FFF" d="M24 9C14.1 9 6 17.1 6 27v5c0-9.9 8.1-18 18-18s18 8.1 18 18v-5c0-9.9-8.1-18-18-18z" style="fill:#fff"></path>
      <path id="XMLID_1189_" d="M42 40.5c0 2.2-1.8 4-4 4H10c-2.2 0-4-1.8-4-4V27c0-9.9 8.1-18 18-18s18 8.1 18 18v13.5z" style="fill:none;stroke:#45413c;stroke-linecap:round;stroke-linejoin:round;stroke-miterlimit:10"></path>
      <path id="XMLID_1188_" fill="#C0DCEB" d="M30.5 44c0 1.1-.9 2-2 2h-9c-1.1 0-2-.9-2-2v-8c0-1.1.9-2 2-2h9c1.1 0 2 .9 2 2v8z" style="fill:#c0dceb"></path>
      <path id="XMLID_1187_" fill="#ADC4D9" d="M17.5 38.5h13v2h-13z" style="fill:#adc4d9"></path>
      <path id="XMLID_1185_" d="m45.5 36.5-3.5 2V26l3.5 2z" style="stroke:#45413c;stroke-linecap:round;stroke-linejoin:round;stroke-miterlimit:10;fill:#adc4d9"></path>
      <path id="XMLID_1184_" d="m2.5 36.5 3.5 2V26l-3.5 2z" style="stroke:#45413c;stroke-linecap:round;stroke-linejoin:round;stroke-miterlimit:10;fill:#adc4d9"></path>
      <path id="XMLID_1183_" d="M24 9c.2-1 2.5-8 10.5-6.7" style="fill:none;stroke:#45413c;stroke-linecap:round;stroke-linejoin:round;stroke-miterlimit:10"></path>
      <circle id="XMLID_1182_" cx="36" cy="3.5" r="2.5" style="stroke:#45413c;stroke-linecap:round;stroke-linejoin:round;stroke-miterlimit:10;fill:#ff6242"></circle>
      <path id="XMLID_1181_" d="M30.5 44c0 1.1-.9 2-2 2h-9c-1.1 0-2-.9-2-2v-8c0-1.1.9-2 2-2h9c1.1 0 2 .9 2 2v8z" style="fill:none;stroke:#45413c;stroke-linecap:round;stroke-linejoin:round;stroke-miterlimit:10"></path>
      <path id="XMLID_1180_" d="M30.5 38.5h-13V36c0-1.1.9-2 2-2h9c1.1 0 2 .9 2 2v2.5z" style="stroke:#45413c;stroke-linecap:round;stroke-linejoin:round;stroke-miterlimit:10;fill:#ff6242"></path>
      <path id="XMLID_1179_" d="M33.5 11.8C30.7 10.1 27.5 9 24 9s-6.7 1-9.5 2.7V24h19V11.8z" style="fill:none;stroke:#45413c;stroke-linecap:round;stroke-linejoin:round;stroke-miterlimit:10"></path>
      <circle id="XMLID_1178_" cx="32.5" cy="25" r="5" style="stroke:#45413c;stroke-linecap:round;stroke-linejoin:round;stroke-miterlimit:10;fill:#00dfeb"></circle>
      <circle id="XMLID_1177_" cx="32.5" cy="25" r="2" style="stroke:#45413c;stroke-linecap:round;stroke-linejoin:round;stroke-miterlimit:10;fill:#627b8c"></circle>
      <circle id="XMLID_1176_" cx="15.5" cy="25" r="5" style="stroke:#45413c;stroke-linecap:round;stroke-linejoin:round;stroke-miterlimit:10;fill:#00dfeb"></circle>
      <circle id="XMLID_1175_" cx="15.5" cy="25" r="2" style="stroke:#45413c;stroke-linecap:round;stroke-linejoin:round;stroke-miterlimit:10;fill:#627b8c"></circle>
    </g>
  </g>
</svg>
