<svg xmlns="http://www.w3.org/2000/svg" viewBox="0 0 48 48" id="satellite">
  <rect width="10.235" height="15.855" x="7.276" y="2.468" fill="#47caf0" rx="2" ry="2" transform="rotate(-45 12.393 10.396)"></rect>
  <rect width="10.235" height="15.855" x="32.487" y="27.679" fill="#47caf0" rx="2" ry="2" transform="rotate(-45 37.604 35.607)"></rect>
  <path fill="#cfe0f3" d="m31,13.01l1.08-1.09c.79-.79,2.05-.79,2.83,0l1.17,1.17c.79.78.79,2.04,0,2.83l-1.08,1.09-4-4Z"></path>
  <path fill="#aecee8" d="m36.08,13.09l-.924-.923c-.038.455-.224.901-.576,1.253l-1.581,1.589,2.001,2.001,1.08-1.09c.79-.79.79-2.05,0-2.83Z"></path>
  <rect width="19.798" height="9.899" x="16.1" y="17.052" fill="#eff3f9" rx="2" ry="2" transform="rotate(-45 25.999 22)"></rect>
  <path fill="#cfe0f3" d="M35.084 17.087l-1.852-1.852c.076.854-.2 1.733-.853 2.386l-10.76 10.76c-.654.654-1.533.929-2.386.853l1.852 1.852c.781.781 2.047.781 2.828 0l11.171-11.171c.781-.781.781-2.047 0-2.828zM17.321 39.525c.553.553 1.493.284 1.687-.474.699-2.736-.018-5.757-2.159-7.899-2.142-2.142-5.163-2.858-7.899-2.159-.758.194-1.027 1.133-.474 1.687l8.846 8.846z"></path>
  <path fill="#aecee8" d="m16.848,31.152c-.255-.255-.523-.486-.801-.7.292.965.453,1.987.453,3.048,0,1.528-.334,2.975-.92,4.285l1.741,1.741c.553.553,1.493.284,1.687-.474.699-2.736-.018-5.757-2.159-7.899Z"></path>
  <path fill="#08105e" d="M46.121 35.471l-8.383-8.383c-1.17-1.17-3.072-1.17-4.242 0l-1.496 1.496-2.086-2.086 5.877-5.877c.951-.951 1.115-2.382.519-3.515l.477-.481c.573-.573.888-1.332.886-2.135-.003-.799-.318-1.55-.886-2.109l-1.165-1.166c-.564-.571-1.315-.887-2.114-.89-.003 0-.006 0-.009 0-.801 0-1.555.314-2.129.889l-.472.477c-1.133-.599-2.567-.437-3.521.517l-5.877 5.877-2.085-2.085 1.497-1.497c1.169-1.169 1.169-3.073 0-4.242L12.528 1.877c-1.171-1.171-3.074-1.169-4.243 0L3.877 6.286c-1.17 1.17-1.17 3.073 0 4.243l8.383 8.383c.566.566 1.319.878 2.121.878s1.555-.312 2.121-.878l1.499-1.499 2.085 2.085-3.88 3.88c-1.169 1.169-1.169 3.073 0 4.242l1.382 1.382-.786.783c-2.254-1.806-5.272-2.488-8.1-1.763-.703.179-1.258.724-1.449 1.421-.192.702 0 1.427.515 1.941l3.719 3.719-1.192 1.185c-.392.39-.394 1.022-.004 1.414.195.197.452.295.709.295.255 0 .51-.097.705-.291l1.196-1.189 3.712 3.713h0c.384.383.884.587 1.403.587.179 0 .359-.024.539-.073.697-.191 1.241-.746 1.42-1.448.724-2.833.044-5.846-1.76-8.098l.786-.783 1.376 1.375c.585.585 1.353.877 2.121.877s1.536-.292 2.121-.877l3.88-3.88 2.086 2.086-1.499 1.498c-1.17 1.17-1.17 3.073 0 4.243l8.383 8.383c.566.567 1.32.879 2.121.879s1.556-.312 2.121-.879l4.409-4.409c.566-.567.879-1.32.879-2.122s-.313-1.555-.879-2.121zM19.497 13.088l-1.497 1.497-1.363-1.363 2.204-2.204.656.656c.39.39.39 1.024 0 1.414zm-9.308.924l2.206-2.205 1.414 1.414-2.206 2.206-1.414-1.414zm-2.828-2.828l2.206-2.205 1.414 1.414-2.206 2.205-1.414-1.414zm7.238-4.409l-2.204 2.203-1.414-1.414 2.204-2.203 1.414 1.414zm-.79 3.618l2.204-2.203 1.414 1.414-2.204 2.204-1.414-1.414zm-4.109-7.102c.195-.195.451-.292.708-.292s.512.098.707.292l.656.656-2.204 2.203-1.363-1.363 1.496-1.496zm-4.408 4.409l1.498-1.498 1.363 1.363-2.206 2.205-.656-.656c-.39-.39-.39-1.024 0-1.415zm9.797 9.797c-.377.379-1.037.378-1.414 0l-.656-.656 2.206-2.206 1.363 1.363-1.498 1.498zm2.943 21.324l-.004-.004-8.831-8.856c2.479-.632 5.141.095 6.944 1.898 1.804 1.804 2.531 4.465 1.891 6.963zm15.468-26.495s.002 0 .003 0c.262 0 .51.105.701.299l1.174 1.174c.19.188.295.435.296.697 0 .267-.105.521-.303.718l-.37.373-2.586-2.586.373-.376c.193-.193.446-.3.712-.3zm-10.293 18.052c-.391.39-1.023.39-1.414 0l-4.172-4.171c-.39-.39-.39-1.024 0-1.414l11.171-11.171c.195-.195.451-.292.707-.292s.513.098.708.292l4.171 4.171c.39.39.39 1.024 0 1.415l-11.171 11.171zm12.194 8.846l2.206-2.206 1.414 1.414-2.206 2.206-1.414-1.414zm-2.828-2.828l2.206-2.206 1.414 1.414-2.206 2.206-1.414-1.414zm7.237-4.409l-2.203 2.203-1.414-1.414 2.203-2.203 1.414 1.414zm-.789 3.617l2.203-2.203 1.415 1.415-2.203 2.203-1.414-1.414zm-4.109-7.102c.189-.189.44-.293.707-.293s.518.104.707.293l.656.656-2.203 2.203-1.363-1.363 1.496-1.496zm-4.409 4.409l1.499-1.498 1.363 1.363-2.206 2.206-.656-.656c-.39-.39-.39-1.024 0-1.415zm9.796 9.798c-.377.376-1.033.378-1.413 0l-.656-.656 2.206-2.206 1.363 1.363-1.5 1.499zm4.41-4.41l-1.496 1.496-1.363-1.363 2.203-2.203.656.656c.189.188.293.439.293.707s-.104.518-.293.707zM10.285 45.015c-1.829-.323-3.488-1.187-4.801-2.499s-2.177-2.973-2.5-4.801c-.096-.544-.616-.908-1.158-.811-.544.096-.907.615-.811 1.159.394 2.235 1.45 4.264 3.055 5.868 1.604 1.604 3.632 2.66 5.867 3.055.059.01.117.015.175.015.477 0 .898-.341.983-.826.097-.544-.267-1.062-.811-1.159zM10.979 41.076c-1.016-.179-1.938-.659-2.667-1.389-.729-.729-1.21-1.651-1.388-2.666-.097-.544-.614-.907-1.158-.812s-.907.614-.812 1.158c.25 1.422.922 2.713 1.944 3.735 1.021 1.021 2.312 1.693 3.733 1.944.059.01.117.015.175.015.477 0 .898-.341.983-.826.097-.544-.267-1.062-.811-1.159z"></path>
</svg>
