<svg xmlns="http://www.w3.org/2000/svg" width="30" height="30" viewBox="0 0 7.937 7.937" id="storm">
  <g stroke="#000" stroke-linecap="round" stroke-linejoin="round" stroke-width=".529">
    <path fill="#08a" d="M3.969.265a2.117 2.117 0 0 0-1.847 1.083 1.587 1.587 0 0 0-.27-.025A1.587 1.587 0 0 0 .264 2.911a1.587 1.587 0 0 0 1.588 1.587 1.587 1.587 0 0 0 .976-.336 2.117 2.117 0 0 0 1.14.336 2.117 2.117 0 0 0 1.353-.491 1.323 1.323 0 0 0 1.029.491 1.323 1.323 0 0 0 1.323-1.323A1.323 1.323 0 0 0 6.35 1.852a1.323 1.323 0 0 0-.324.042A2.117 2.117 0 0 0 3.969.264z" paint-order="fill markers stroke"></path>
    <path fill="#d4aa00" d="M4.929 4.264a2.117 2.117 0 0 1-.96.234 2.117 2.117 0 0 1-.669-.112l-.39 1.17h.53l-.53 2.117 2.117-2.116h-.53z"></path>
  </g>
</svg>
