<svg xmlns="http://www.w3.org/2000/svg" width="512" height="512" enable-background="new 0 0 512 512" viewBox="0 0 512 512" id="thermometer">
  <path fill="#DCF1FC" d="M297.91,342.076V64.182c0-17.452-14.148-31.6-31.601-31.6h-0.342c-17.452,0-31.6,14.147-31.6,31.6v277.895
			c-24.024,11.766-40.571,36.447-40.571,65c0,39.955,32.389,72.342,72.342,72.342c39.954,0,72.343-32.387,72.343-72.342
			C338.481,378.523,321.935,353.842,297.91,342.076z"></path>
  <path d="M266.139,484.418c-42.646,0-77.342-34.695-77.342-77.342c0-28.708,15.465-54.5,40.571-68.05V64.182
			c0-20.181,16.418-36.6,36.6-36.6h0.342c20.182,0,36.601,16.418,36.601,36.6v274.845c25.105,13.55,40.571,39.342,40.571,68.05
			C343.481,449.723,308.785,484.418,266.139,484.418z M265.968,37.582c-14.667,0-26.6,11.933-26.6,26.6v281.014l-2.801,1.371
			c-23.298,11.41-37.771,34.596-37.771,60.51c0,37.133,30.209,67.342,67.342,67.342c37.133,0,67.343-30.209,67.343-67.342
			c0-25.914-14.473-49.1-37.771-60.51l-2.801-1.371V64.182c0-14.667-11.933-26.6-26.601-26.6H265.968z"></path>
  <path fill="#939393" d="M280.073,355.574V65.236c0-7.695-6.239-13.935-13.935-13.935s-13.935,6.239-13.935,13.935v290.338
			c-22.202,6.107-38.519,26.426-38.519,50.568c0,28.969,23.484,52.453,52.453,52.453c28.97,0,52.454-23.484,52.454-52.453
			C318.593,382,302.276,361.682,280.073,355.574z"></path>
  <path d="M266.139,463.596c-31.68,0-57.453-25.773-57.453-57.453c0-24.488,15.655-46.268,38.519-54.244V65.236
			c0-10.44,8.494-18.935,18.935-18.935s18.935,8.494,18.935,18.935v286.662c22.863,7.977,38.52,29.756,38.52,54.244
			C323.593,437.822,297.819,463.596,266.139,463.596z M266.139,56.302c-4.927,0-8.935,4.008-8.935,8.935v294.148l-3.674,1.011
			c-20.516,5.644-34.845,24.455-34.845,45.747c0,26.166,21.288,47.453,47.453,47.453c26.166,0,47.454-21.287,47.454-47.453
			c0-21.292-14.329-40.104-34.846-45.747l-3.674-1.011V65.236C275.073,60.31,271.065,56.302,266.139,56.302z"></path>
  <path fill="#ED1F24" d="M280.074,178.686h-27.87v176.89c-22.2,6.11-38.52,26.431-38.52,50.57c0,28.97,23.489,52.45,52.46,52.45
			c28.97,0,52.449-23.48,52.449-52.45c0-24.14-16.319-44.46-38.52-50.57V178.686z"></path>
  <path d="M266.145,463.596c-31.684,0-57.46-25.772-57.46-57.45c0-24.485,15.656-46.266,38.52-54.246V173.686h37.87v178.214
			c22.863,7.98,38.52,29.761,38.52,54.246C323.594,437.823,297.822,463.596,266.145,463.596z M257.204,183.686v175.699l-3.673,1.011
			c-20.517,5.647-34.846,24.46-34.846,45.75c0,26.164,21.291,47.45,47.46,47.45c26.164,0,47.449-21.286,47.449-47.45
			c0-21.29-14.329-40.103-34.847-45.75l-3.673-1.011V183.686H257.204z"></path>
  <g>
    <path d="M206.186 185.686c-10.889 0-21.778 0-32.667 0-6.449 0-6.449 10 0 10 10.889 0 21.778 0 32.667 0C212.634 195.686 212.634 185.686 206.186 185.686L206.186 185.686zM206.186 288.686c-10.889 0-21.778 0-32.667 0-6.449 0-6.449 10 0 10 10.889 0 21.778 0 32.667 0C212.634 298.686 212.634 288.686 206.186 288.686L206.186 288.686zM206.186 268.085c-7.722 0-15.445 0-23.167 0-6.449 0-6.449 10 0 10 7.722 0 15.445 0 23.167 0C212.634 278.085 212.634 268.085 206.186 268.085L206.186 268.085zM206.186 247.485c-7.722 0-15.445 0-23.167 0-6.449 0-6.449 10 0 10 7.722 0 15.445 0 23.167 0C212.634 257.485 212.634 247.485 206.186 247.485L206.186 247.485zM206.186 226.886c-7.722 0-15.445 0-23.167 0-6.449 0-6.449 10 0 10 7.722 0 15.445 0 23.167 0C212.634 236.886 212.634 226.886 206.186 226.886L206.186 226.886zM206.186 206.285c-7.722 0-15.445 0-23.167 0-6.449 0-6.449 10 0 10 7.722 0 15.445 0 23.167 0C212.634 216.285 212.634 206.285 206.186 206.285L206.186 206.285zM206.186 82.686c-10.889 0-21.778 0-32.667 0-6.449 0-6.449 10 0 10 10.889 0 21.778 0 32.667 0C212.634 92.686 212.634 82.686 206.186 82.686L206.186 82.686zM206.186 165.085c-7.722 0-15.445 0-23.167 0-6.449 0-6.449 10 0 10 7.722 0 15.445 0 23.167 0C212.634 175.085 212.634 165.085 206.186 165.085L206.186 165.085zM206.186 144.485c-7.722 0-15.445 0-23.167 0-6.449 0-6.449 10 0 10 7.722 0 15.445 0 23.167 0C212.634 154.485 212.634 144.485 206.186 144.485L206.186 144.485zM206.186 123.886c-7.722 0-15.445 0-23.167 0-6.449 0-6.449 10 0 10 7.722 0 15.445 0 23.167 0C212.634 133.886 212.634 123.886 206.186 123.886L206.186 123.886zM206.186 103.286c-7.722 0-15.445 0-23.167 0-6.449 0-6.449 10 0 10 7.722 0 15.445 0 23.167 0C212.634 113.286 212.634 103.286 206.186 103.286L206.186 103.286z"></path>
  </g>
  <g opacity=".1">
    <path d="M318.593,406.143c0,22.92-14.7,42.42-35.2,49.549c13.99-9.42,23.2-25.41,23.2-43.549c0-24.141-16.311-44.461-38.521-50.57
			V71.242c0-7.52-5.939-13.64-13.38-13.92c2.5-3.64,6.69-6.02,11.45-6.02c7.7,0,13.93,6.24,13.93,13.94v290.331
			C302.282,361.682,318.593,382.002,318.593,406.143z"></path>
  </g>
</svg>
