<svg xmlns="http://www.w3.org/2000/svg" viewBox="0 0 48 48" id="warning-sign">
  <path fill="#ffc343" d="M20.536,6.998L3.193,37.006c-1.54,2.664.385,5.994,3.464,5.994h34.685c3.079,0,5.004-3.33,3.464-5.994L27.464,6.998c-1.54-2.664-5.389-2.664-6.928,0Z"></path>
  <path fill="#ffa221" d="M42.824,33.576c-3.629,1.558-7.625,2.424-11.824,2.424-8.587,0-16.326-3.614-21.795-9.397l-6.012,10.403c-1.54,2.664.385,5.994,3.464,5.994h34.685c3.079,0,5.004-3.33,3.464-5.994l-1.982-3.43Z"></path>
  <circle cx="24" cy="36" r="2" fill="#555e77"></circle>
  <path fill="#424c63" d="M24,38c1.105,0,2-.895,2-2,0-.148-.019-.292-.049-.431-1.193-.203-2.361-.479-3.502-.818-.277.343-.449.773-.449,1.249,0,1.105.895,2,2,2Z"></path>
  <path fill="#555e77" d="M24.966,15h-1.932c-.565,0-1.018.469-.999,1.034l.438,13c.018.539.46.966.999.966h1.061c.539,0,.981-.428.999-.967l.433-13c.019-.565-.434-1.033-.999-1.033Z"></path>
  <path fill="#08105e" d="M41.342,44H6.658c-1.809,0-3.428-.935-4.332-2.5-.903-1.564-.902-3.432.001-4.994L19.67,6.498c.904-1.564,2.522-2.498,4.33-2.498s3.426.934,4.33,2.498l17.343,30.008c.903,1.562.904,3.43.001,4.994-.903,1.565-2.522,2.5-4.332,2.5ZM24,6c-1.084,0-2.056.56-2.598,1.499h0L4.059,37.506c-.542.938-.542,2.057,0,2.994.542.939,1.514,1.5,2.6,1.5h34.685c1.085,0,2.058-.561,2.6-1.5.541-.938.541-2.057,0-2.994L26.598,7.499c-.542-.938-1.514-1.499-2.598-1.499Z"></path>
  <path fill="#08105e" d="M24 39c-1.654 0-3-1.346-3-3s1.346-3 3-3 3 1.346 3 3-1.346 3-3 3zM24 35c-.551 0-1 .448-1 1s.449 1 1 1 1-.448 1-1-.449-1-1-1zM24.533 31h-1.061c-1.084 0-1.962-.85-1.999-1.934l-.438-12.999c-.019-.546.181-1.064.561-1.458.38-.393.891-.61 1.438-.61h1.932c.547 0 1.057.216 1.438.61.38.393.58.911.561 1.457l-.433 13c-.037 1.084-.915 1.934-1.999 1.934zM23.034 16l.438 13h1.061l.433-13h-1.932zM24.966 16h.01-.01z"></path>
</svg>
